<svg width="20" height="20" viewBox="0 0 20 20" fill="none" xmlns="http://www.w3.org/2000/svg">
<g clip-path="url(#clip0_1275_4088)">
<path d="M5.44559 2.5H17.4998C17.7208 2.5 17.9327 2.5878 18.089 2.74408C18.2453 2.90036 18.3331 3.11232 18.3331 3.33333V16.6667C18.3331 16.8877 18.2453 17.0996 18.089 17.2559C17.9327 17.4122 17.7208 17.5 17.4998 17.5H5.44559C5.30843 17.5 5.17339 17.4662 5.05244 17.4015C4.93149 17.3368 4.82838 17.2433 4.75226 17.1292L0.308093 10.4625C0.216728 10.3256 0.167969 10.1646 0.167969 10C0.167969 9.83538 0.216728 9.67444 0.308093 9.5375L4.75226 2.87083C4.82838 2.75674 4.93149 2.66319 5.05244 2.5985C5.17339 2.53381 5.30843 2.49998 5.44559 2.5ZM5.89143 4.16667L2.00309 10L5.89143 15.8333H16.6664V4.16667H5.89143ZM10.8331 8.82167L13.1898 6.46417L14.3689 7.64333L12.0114 10L14.3689 12.3567L13.1898 13.5358L10.8331 11.1783L8.47643 13.5358L7.29726 12.3567L9.65476 10L7.29726 7.64333L8.47643 6.46417L10.8331 8.82167Z" fill="#6F62D8"/>
</g>
<defs>
<clipPath id="clip0_1275_4088">
<rect width="20" height="20" fill="white"/>
</clipPath>
</defs>
</svg>
